<?xml version="1.0" encoding="UTF-8"?>
<svg width="1200pt" height="1200pt" version="1.1" viewBox="0 0 1200 1200" xmlns="http://www.w3.org/2000/svg">
 <path d="m1044 808.8c-20.398 52.801-72 87.602-128.4 87.602l-378-0.003906-201.6 193.2c-4.8008 4.8008-10.801 7.1992-18 7.1992-3.6016 0-7.1992-1.1992-9.6016-2.3984-9.6016-3.6016-15.602-13.199-15.602-24l0.003906-174h-63.602c-76.801 0-138-62.398-138-138v-418.8c0-76.801 62.398-138 138-138h421.2c14.398 0 25.199 12 25.199 25.199s-12 25.199-25.199 25.199h-420c-48 0-87.602 39.602-87.602 87.602v418.8c0 48 39.602 87.602 87.602 87.602h88.801c14.398 0 25.199 12 25.199 25.199v140.4l165.6-158.4c4.8008-4.8008 10.801-7.1992 18-7.1992h388.8c36 0 68.398-22.801 81.602-55.199 4.8008-13.199 20.398-19.199 33.602-14.398 10.797 4.793 17.996 19.195 11.996 32.395zm64.801-399.6v3.6016l-37.199 234c-7.1992 60-50.398 94.801-115.2 94.801h-274.8c-26.398 0-49.199-9.6016-67.199-26.398-8.3984 6-18 9.6016-28.801 9.6016h-92.398c-26.398 0-48-21.602-48-48l-0.003906-289.2c0-26.398 21.602-48 48-48h92.398c14.398 0 26.398 6 34.801 15.602 9.6016-2.3984 99.602-31.199 99.602-110.4v-111.6c0-10.801 7.1992-20.398 18-24 6-2.3984 60-18 102 13.199 26.398 19.199 40.801 52.801 40.801 98.398v90h128.4c55.199 0 99.602 44.398 99.602 98.398zm-525.6-18h-85.199v283.2h85.199zm474 16.801c-1.1992-25.199-21.602-45.602-48-45.602h-153.6c-14.398 0-25.199-12-25.199-25.199v-115.2c0-27.602-6-46.801-19.199-56.398-10.801-8.3984-26.398-9.6016-38.398-8.3984v91.199c0 120-130.8 157.2-136.8 159.6v238.8c0 26.398 21.602 48 48 48h273.6c58.801 0 63.602-38.398 64.801-50.398v-1.1992z"/>
</svg>
