<?xml version="1.0" encoding="UTF-8"?>
<svg width="1200pt" height="1200pt" version="1.1" viewBox="0 0 1200 1200" xmlns="http://www.w3.org/2000/svg">
 <g>
  <path d="m1100 856.25c16-14.309 25.098-34.785 25-56.25-0.17188-33.961-11.863-66.859-33.16-93.312-21.301-26.457-50.945-44.898-84.09-52.312l-194.62-44.125 5.875-8.75c3.832-5.5 5.2969-12.312 4.0625-18.902-1.2383-6.5898-5.0664-12.406-10.633-16.145-5.5664-3.7383-12.402-5.082-18.969-3.7344-6.5664 1.3477-12.32 5.2773-15.961 10.906l-16.625 25c-27.293-6.5547-52.676-19.395-74.125-37.5l4.875-4.375c6.6992-5.9414 9.7188-15 7.9258-23.773-1.793-8.7695-8.1328-15.918-16.625-18.75-8.4922-2.832-17.852-0.91797-24.551 5.0234l-4.625 4c-13.879-21.43-22.961-45.605-26.625-70.875l20.625-8.875c8.2188-3.5508 13.914-11.215 14.949-20.105 1.0352-8.8906-2.7539-17.66-9.9375-23-7.1836-5.3398-16.668-6.4453-24.887-2.8945l-2.875 1.375v-293c0.12891-21.406-8.8945-41.848-24.797-56.176-15.906-14.332-37.176-21.18-58.453-18.824l-185.88 21c-13.703 1.5781-26.707 6.9062-37.578 15.398-10.875 8.4883-19.195 19.812-24.047 32.727l-29.25 75-73.25 8.25c-18.43 2.0391-35.449 10.832-47.777 24.684-12.324 13.852-19.086 31.773-18.973 50.316v54.25c1.457 51.922-9.7852 103.41-32.75 150-19.48 42.434-33.672 87.102-42.25 133-19.375 108.88 31.125 201.75 62.5 247.38l3 3.625c-34.969 19.227-62.316 49.832-77.508 86.734-15.191 36.902-17.312 77.891-6.0156 116.16 11.301 38.273 35.344 71.539 68.141 94.273 32.797 22.734 72.383 33.578 112.19 30.73 39.805-2.8477 77.445-19.215 106.67-46.391 29.227-27.172 48.289-63.52 54.023-103.01h54c6.3086 41.363 27.227 79.098 58.965 106.36 31.738 27.262 72.195 42.254 114.04 42.254s82.297-14.992 114.04-42.254c31.738-27.266 52.656-65 58.965-106.36h54c5.5508 38.477 23.758 74.012 51.746 100.99 27.988 26.984 64.164 43.879 102.82 48.02 38.656 4.1406 77.59-4.707 110.66-25.148 33.07-20.438 58.391-51.309 71.969-87.738 13.578-36.426 14.637-76.34 3.0156-113.44-11.625-37.098-35.27-69.27-67.203-91.438zm-759.12-738.75c1.6406-4.2656 4.418-8.0039 8.0312-10.805 3.6133-2.7969 7.9258-4.5508 12.469-5.0703l185.88-20.625c7.0938-0.78516 14.184 1.4961 19.484 6.2734 5.3008 4.7773 8.3086 11.59 8.2656 18.727v34.25l-253.88 28.125zm-165.88 139.75c-0.039062-6.1797 2.2148-12.156 6.3242-16.773 4.1094-4.6172 9.7812-7.5469 15.926-8.2266l377.75-41.875v97.125h-400zm-36.75 225c22.02-45.23 34.527-94.496 36.75-144.75h400v82.5l-85.25 36.875c-7.1758 3.0547-12.516 9.2812-14.441 16.836-1.9219 7.5586-0.20703 15.582 4.6328 21.691 4.8438 6.1133 12.262 9.6172 20.059 9.4727 3.4336 0.027344 6.8398-0.65234 10-2l70.375-30.5c6.1641 30.176 18.461 58.77 36.125 84l-70.25 62.5c-4.9492 4.3984-7.9531 10.578-8.3516 17.188-0.39844 6.6055 1.8398 13.102 6.2266 18.062 4.6758 5.25 11.344 8.293 18.375 8.375 6.1367-0.011719 12.055-2.2812 16.625-6.375l70-62.5c23.805 21.613 51.926 37.93 82.5 47.875l-38.125 56.625c-3.8672 5.4961-5.3555 12.32-4.1328 18.93 1.2227 6.6055 5.0547 12.445 10.633 16.195 5.5078 3.668 12.242 5.0078 18.734 3.7188 6.4883-1.2891 12.203-5.0977 15.891-10.594l48.25-71.625 213.75 48.5c22.078 4.8906 41.848 17.117 56.082 34.688 14.234 17.574 22.094 39.449 22.293 62.062 0 6.6289-2.6328 12.988-7.3242 17.676-4.6875 4.6914-11.047 7.3242-17.676 7.3242h-676.38c-6.1719-58.324-33.711-112.3-77.305-151.54-43.598-39.234-100.17-60.949-158.82-60.965-13.238-0.003906-26.453 1.125-39.5 3.375 0-3.75 0.875-7.625 1.625-11.375 7.6016-42.434 20.578-83.727 38.625-122.88zm688.75 492.75h-54c-5.4883-37.996-23.32-73.137-50.75-100h155.5c-27.43 26.863-45.262 62.004-50.75 100zm-400 0h-54c-5.4883-37.996-23.32-73.137-50.75-100h155.5c-27.43 26.863-45.262 62.004-50.75 100zm-252-150c-8.2266 0.027344-15.938-3.9922-20.625-10.75-31.262-43.445-51.004-94.105-57.375-147.25 13.301-2.9414 26.879-4.4531 40.5-4.5 45.363 0.046875 89.172 16.543 123.3 46.422 34.133 29.879 56.277 71.121 62.324 116.08zm25 300c-33.152 0-64.945-13.168-88.387-36.613-23.445-23.441-36.613-55.234-36.613-88.387s13.168-64.945 36.613-88.387c23.441-23.445 55.234-36.613 88.387-36.613s64.945 13.168 88.387 36.613c23.445 23.441 36.613 55.234 36.613 88.387s-13.168 64.945-36.613 88.387c-23.441 23.445-55.234 36.613-88.387 36.613zm400 0c-33.152 0-64.945-13.168-88.387-36.613-23.445-23.441-36.613-55.234-36.613-88.387s13.168-64.945 36.613-88.387c23.441-23.445 55.234-36.613 88.387-36.613s64.945 13.168 88.387 36.613c23.445 23.441 36.613 55.234 36.613 88.387s-13.168 64.945-36.613 88.387c-23.441 23.445-55.234 36.613-88.387 36.613zm400 0c-33.152 0-64.945-13.168-88.387-36.613-23.445-23.441-36.613-55.234-36.613-88.387s13.168-64.945 36.613-88.387c23.441-23.445 55.234-36.613 88.387-36.613s64.945 13.168 88.387 36.613c23.445 23.441 36.613 55.234 36.613 88.387s-13.168 64.945-36.613 88.387c-23.441 23.445-55.234 36.613-88.387 36.613z"/>
  <path d="m1e3 912.5c-23.207 0-45.461 9.2188-61.871 25.629s-25.629 38.664-25.629 61.871 9.2188 45.461 25.629 61.871 38.664 25.629 61.871 25.629 45.461-9.2188 61.871-25.629 25.629-38.664 25.629-61.871-9.2188-45.461-25.629-61.871-38.664-25.629-61.871-25.629zm0 125c-9.9453 0-19.484-3.9492-26.516-10.984-7.0352-7.0312-10.984-16.57-10.984-26.516s3.9492-19.484 10.984-26.516c7.0312-7.0352 16.57-10.984 26.516-10.984s19.484 3.9492 26.516 10.984c7.0352 7.0312 10.984 16.57 10.984 26.516s-3.9492 19.484-10.984 26.516c-7.0312 7.0352-16.57 10.984-26.516 10.984z"/>
  <path d="m600 912.5c-23.207 0-45.461 9.2188-61.871 25.629s-25.629 38.664-25.629 61.871 9.2188 45.461 25.629 61.871 38.664 25.629 61.871 25.629 45.461-9.2188 61.871-25.629 25.629-38.664 25.629-61.871-9.2188-45.461-25.629-61.871-38.664-25.629-61.871-25.629zm0 125c-9.9453 0-19.484-3.9492-26.516-10.984-7.0352-7.0312-10.984-16.57-10.984-26.516s3.9492-19.484 10.984-26.516c7.0312-7.0352 16.57-10.984 26.516-10.984s19.484 3.9492 26.516 10.984c7.0352 7.0312 10.984 16.57 10.984 26.516s-3.9492 19.484-10.984 26.516c-7.0312 7.0352-16.57 10.984-26.516 10.984z"/>
  <path d="m200 912.5c-23.207 0-45.461 9.2188-61.871 25.629s-25.629 38.664-25.629 61.871 9.2188 45.461 25.629 61.871 38.664 25.629 61.871 25.629 45.461-9.2188 61.871-25.629 25.629-38.664 25.629-61.871-9.2188-45.461-25.629-61.871-38.664-25.629-61.871-25.629zm0 125c-9.9453 0-19.484-3.9492-26.516-10.984-7.0352-7.0312-10.984-16.57-10.984-26.516s3.9492-19.484 10.984-26.516c7.0312-7.0352 16.57-10.984 26.516-10.984s19.484 3.9492 26.516 10.984c7.0352 7.0312 10.984 16.57 10.984 26.516s-3.9492 19.484-10.984 26.516c-7.0312 7.0352-16.57 10.984-26.516 10.984z"/>
 </g>
</svg>
