<?xml version="1.0" encoding="UTF-8"?>
<svg width="1200pt" height="1200pt" version="1.1" viewBox="0 0 1200 1200" xmlns="http://www.w3.org/2000/svg">
 <g>
  <path d="m841.79 104.43-60.637-23.32-27.867 97.535 47.688 27.82z"/>
  <path d="m487.5 1012.5c0-29.836-11.852-58.453-32.949-79.551-21.098-21.098-49.715-32.949-79.551-32.949s-58.453 11.852-79.551 32.949c-21.098 21.098-32.949 49.715-32.949 79.551s11.852 58.453 32.949 79.551c21.098 21.098 49.715 32.949 79.551 32.949 29.828-0.035156 58.422-11.898 79.512-32.988 21.09-21.09 32.953-49.684 32.988-79.512zm-187.5 0c0-19.891 7.9023-38.969 21.969-53.031 14.062-14.066 33.141-21.969 53.031-21.969s38.969 7.9023 53.031 21.969c14.066 14.062 21.969 33.141 21.969 53.031s-7.9023 38.969-21.969 53.031c-14.062 14.066-33.141 21.969-53.031 21.969-19.883-0.023438-38.949-7.9297-53.008-21.992-14.062-14.059-21.969-33.125-21.992-53.008z"/>
  <path d="m412.5 1012.5c0 20.711-16.789 37.5-37.5 37.5s-37.5-16.789-37.5-37.5 16.789-37.5 37.5-37.5 37.5 16.789 37.5 37.5"/>
  <path d="m1050 1012.5c0 20.711-16.789 37.5-37.5 37.5s-37.5-16.789-37.5-37.5 16.789-37.5 37.5-37.5 37.5 16.789 37.5 37.5"/>
  <path d="m153.58 865.98-63.395 36.227c-4.6094 2.6406-8.4375 6.4492-11.105 11.043-2.6641 4.5898-4.0703 9.8086-4.0781 15.117v5.3984c-0.003906 8.8008 3.8398 17.16 10.523 22.879l100.45 86.102c5.9062 5.0703 13.547 7.6523 21.316 7.2031 7.7695-0.44922 15.062-3.8906 20.344-9.6094-7.7266-40.594 1.7188-82.57 26.078-115.95z"/>
  <path d="m164.51 600.09c-24.094 1.1211-46.836 11.473-63.504 28.91-16.664 17.438-25.98 40.625-26.008 64.746v18.75c0.003906 2.3477 0.44922 4.6758 1.3125 6.8555 6.5547-1.625 13.363-1.9336 20.031-0.90625l205.09 31.551h200.08c-8.6875-27.121-25.734-50.797-48.699-67.637-22.965-16.84-50.668-25.98-79.145-26.113-63.68-0.074219-126.47-14.898-183.46-43.309z"/>
  <path d="m375 581.25c-4.4492 2.2227-9.5977 2.5898-14.312 1.0156-4.7188-1.5703-8.6172-4.9531-10.844-9.4023l-11.551-23.102c-27.078 10.062-54.582 18.988-82.516 26.77l-34.512 9.5859v0.003906c47.953 21.434 99.879 32.551 152.4 32.629 36.789-0.007812 72.605 11.812 102.16 33.719 29.555 21.906 51.285 52.734 61.977 87.938l52.781-28.789c84.395-45.945 178.47-71.266 274.53-73.887 7.2188-55.523-1.2383-111.96-24.422-162.93-23.188-50.969-60.168-94.434-106.77-125.48l-37.891-25.262c-12.312 11.945-24.906 23.566-37.781 34.863l20.496 27.332c2.9844 3.9805 4.2656 8.9805 3.5625 13.902s-3.3359 9.3633-7.3125 12.348-8.9805 4.2656-13.902 3.5625-9.3633-3.3359-12.348-7.3125l-19.203-25.605c-12.121 9.8711-24.457 19.457-37.004 28.766l15.844 31.684c2.9922 5.9922 2.5625 13.125-1.1289 18.715-3.6914 5.5859-10.082 8.7812-16.766 8.3828-6.6875-0.40234-12.648-4.3359-15.648-10.328l-13.219-26.438c-12.832 8.7969-25.855 17.297-39.07 25.504l10.832 21.66v0.003906c2.2227 4.4492 2.5898 9.5977 1.0156 14.316-1.5703 4.7148-4.9531 8.6172-9.4023 10.84s-9.5977 2.5898-14.312 1.0156c-4.7188-1.5703-8.6172-4.9531-10.844-9.4023l-9.5938-19.191c-13.422 7.668-27.016 15.035-40.777 22.098l8.9102 17.824h0.003907c2.9922 5.9922 2.5625 13.125-1.1289 18.715-3.6914 5.5859-10.082 8.7812-16.766 8.3828-6.6875-0.40234-12.652-4.3359-15.648-10.328l-9.043-18.082c-14.008 6.5547-28.164 12.793-42.469 18.711l10.051 20.102h0.003907c2.2227 4.4492 2.5898 9.5977 1.0156 14.316-1.5742 4.7148-4.9531 8.6172-9.4023 10.84z"/>
  <path d="m1125 400c-39.25 13.121-75.391 34.156-106.18 61.805-30.793 27.652-55.582 61.324-72.836 98.941l-35.426 76.758h214.45z"/>
  <path d="m1125 168.51c-82.738-2.082-164.5-18.359-241.73-48.129l-6.4805-2.4922-42.652 106.63c89.914 45.332 190.43 65.457 290.86 58.234z"/>
  <path d="m1106.2 712.5c6.6992 0 12.887-3.5742 16.238-9.375 3.3477-5.8008 3.3477-12.949 0-18.75-3.3516-5.8008-9.5391-9.375-16.238-9.375h-225c-95.277 0.070312-189.03 23.977-272.7 69.539l-74.57 40.672c-2.7539 1.5-5.8398 2.2891-8.9766 2.2891h-225c-0.95312 0-1.9062-0.074219-2.8516-0.21875l-206.5-31.77c-3.918-0.60156-7.9023 0.53516-10.906 3.1133-3.0078 2.582-4.7383 6.3438-4.7383 10.309 0.007812 4.8242 2.5703 9.2852 6.7344 11.727l198.41 115.74v-0.003906c27.484-22.523 62.09-34.531 97.617-33.871 35.531 0.66016 69.664 13.941 96.293 37.473h13.445c4.9727-0.003906 9.7383-1.9844 13.254-5.4961 3.5117-3.5156 5.4922-8.2812 5.4961-13.254 0.015625-14.914 5.9492-29.211 16.492-39.758 10.547-10.543 24.844-16.477 39.758-16.492h225c14.914 0.015625 29.211 5.9492 39.758 16.492 10.543 10.547 16.477 24.844 16.492 39.758 0.003906 4.9727 1.9844 9.7383 5.4961 13.254 3.5156 3.5117 8.2812 5.4922 13.254 5.4961h50.945c39.457-34.859 94.328-46.418 144.5-30.445l7.4258-44.555h-202.87v-37.5h243.75c6.6992 0 12.887-3.5742 16.238-9.375 3.3477-5.8008 3.3477-12.949 0-18.75-3.3516-5.8008-9.5391-9.375-16.238-9.375s-12.887-3.5742-16.238-9.375c-3.3477-5.8008-3.3477-12.949 0-18.75 3.3516-5.8008 9.5391-9.375 16.238-9.375zm-56.25 37.5h-155.47c-79.793 0.09375-158.48 18.672-229.89 54.27l-16.77-33.539h-0.003907c76.625-38.195 161.05-58.129 246.66-58.23h155.47z"/>
  <path d="m1125 320.37c-119.14 8.0156-237.94-19.984-340.96-80.367l-42.297-24.676-25.672 77.02 38.66 25.773c41.297 27.512 76.02 63.785 101.7 106.25 25.676 42.461 41.676 90.059 46.859 139.41l8.6523-18.742c20.27-44.172 49.777-83.48 86.531-115.28 36.758-31.793 79.906-55.336 126.54-69.035z"/>
  <path d="m1012.5 900c-29.836 0-58.453 11.852-79.551 32.949-21.098 21.098-32.949 49.715-32.949 79.551s11.852 58.453 32.949 79.551c21.098 21.098 49.715 32.949 79.551 32.949s58.453-11.852 79.551-32.949c21.098-21.098 32.949-49.715 32.949-79.551-0.035156-29.828-11.898-58.422-32.988-79.512-21.09-21.09-49.684-32.953-79.512-32.988zm0 187.5c-19.891 0-38.969-7.9023-53.031-21.969-14.066-14.062-21.969-33.141-21.969-53.031s7.9023-38.969 21.969-53.031c14.062-14.066 33.141-21.969 53.031-21.969s38.969 7.9023 53.031 21.969c14.066 14.062 21.969 33.141 21.969 53.031-0.023438 19.883-7.9297 38.949-21.992 53.008-14.059 14.062-33.125 21.969-53.008 21.992z"/>
 </g>
</svg>
