<?xml version="1.0" encoding="UTF-8"?>
<svg width="1200pt" height="1200pt" version="1.1" viewBox="0 0 1200 1200" xmlns="http://www.w3.org/2000/svg">
 <g>
  <path d="m1016.4 211.2c-121.2-7.1992-247.2 80.398-260.4 90l-546 270c-14.398 7.1992-121.2 57.602-142.8 68.398-7.1992 3.6016-12 8.4023-15.598 15.602-2.4023 3.6016-3.6016 6-3.6016 9.6016v1.1992 42 1.1992c2.3984 16.801 18 42 117.6 68.398-3.6016 31.199 4.8008 60 24 75.602 1.1992 1.1992 1.1992 1.1992 2.3984 1.1992l56.398 24 4.8008 2.3984c6 2.3984 10.801 2.3984 16.801 2.3984 24-1.1992 45.602-14.398 58.801-34.801l118.8 48c-1.1992 22.801 8.3984 44.398 25.199 58.801 1.1992 1.1992 1.1992 1.1992 2.3984 1.1992l56.398 24 4.8008 2.3984c6 2.3984 10.801 2.3984 16.801 2.3984 31.199 0 63.602-27.602 78-69.602 16.801-49.199 3.6016-98.398-32.398-111.6l-46.801-16.789c-19.199-6-38.398-2.3984-54 9.6016 3.6016-6 7.1992-10.801 12-15.602 30-9.6016 57.602-22.801 84-39.602l284.4-164.4 67.199 19.199c0 20.398 9.6016 39.602 26.398 51.602 1.1992 0 1.1992 1.1992 2.3984 1.1992l50.398 18 4.8008 1.1992c3.6016 1.1992 8.3984 1.1992 12 1.1992 28.801 0 57.602-26.398 68.398-66 12-45.602-3.6016-87.602-36-97.199l-44.398-14.398h-4.793l22.801-13.199c46.801-30 92.398-63.602 102-102 0-2.3984 1.1992-4.8008 1.1992-6 1.1992-2.3984 1.1992-3.6016 1.1992-6v-49.199c0-21.602-9.6016-97.203-135.6-104.4zm-753.6 649.2-3.6016-2.3984c-6-2.3984-10.801-7.1992-13.199-13.199-7.1992-15.602-9.6016-32.398-6-49.199 8.3984 1.1992 16.801 3.6016 24 4.8008-1.1992 7.1992 0 14.398 2.3984 20.398 1.1992 3.6016 3.6016 6 7.1992 7.1992l33.602 13.199c-13.199 15.602-30 24-44.398 19.199zm194.4-6c-2.3984 6-3.6016 12-4.8008 19.199l-164.4-65.996v-3.6016c20.398 2.3984 42 3.6016 62.398 3.6016 42 0 84-6 123.6-15.602-3.6016 8.3984-4.8008 16.801-2.3984 26.398 0 1.1992 1.1992 2.3984 1.1992 3.6016-6 9.6016-12 20.398-15.602 32.398zm87.602-44.398 9.6016 3.6016c-21.602 14.398-38.398 34.801-46.801 60-8.3984 22.801-9.6016 46.801-3.6016 69.602l-14.398-6c-15.602-13.199-19.199-44.398-9.6016-75.602 12-34.801 42-58.801 64.801-51.602zm404.4-252c-1.1992 4.8008-2.3984 8.3984-2.3984 13.199l-39.602-10.801 54-31.199c-6 9.6016-9.5977 19.199-12 28.801zm78-39.602c-16.801 14.398-30 32.398-34.801 54-6 19.199-6 39.602 0 58.801l-8.3984-3.5977c-14.398-10.801-19.199-37.199-12-63.602 8.3984-31.199 32.398-54 50.398-48zm98.402-186v0c-8.3984 31.199-52.801 63.602-91.199 87.602l-452.4 264c-1.1992 1.1992-135.6 91.199-338.4 50.398-106.8-22.797-147.6-42-163.2-55.199-1.1992-1.1992-2.3984-2.3984-3.6016-2.3984l-1.1992-1.1992-1.1992-2.3984v-1.1992l-1.1992-0.003906v-1.1992-3.5977-1.1992c1.1992-2.3984 3.6016-3.6016 4.8008-4.8008 21.602-9.6016 128.4-61.199 142.8-68.398l547.2-270 1.1992-1.1992c1.1992-1.1992 128.4-92.398 246-86.398 102 6 112.8 58.801 112.8 80.398 0 6-1.1992 12-2.3984 16.797z"/>
  <path d="m1083.6 280.8c-4.8008-3.6016-13.199-3.6016-16.801 1.1992-3.6016 4.8008-3.6016 13.199 2.3984 16.801 4.8008 4.8008 9.6016 9.6016 13.199 14.398 2.3984 3.6016 6 4.8008 9.6016 4.8008 2.3984 0 4.8008-1.1992 7.1992-2.3984 6-3.6016 7.1992-10.801 3.6016-16.801-6-4.8008-12-12-19.199-18z"/>
  <path d="m1038 260.4c-96-19.199-237.6 70.801-242.4 73.199l-278.4 142.8c-6 2.3984-8.3984 9.6016-4.8008 15.602 2.3984 3.6016 6 6 10.801 6 2.3984 0 3.6016 0 6-1.1992l279.6-142.8c1.1992-1.1992 139.2-88.801 225.6-70.801 6 1.1992 13.199-2.3984 14.398-9.6016 0-5.9961-3.6016-11.996-10.801-13.199z"/>
  <path d="m474 499.2-43.199 22.801c-6 3.6016-8.3984 10.801-4.8008 15.602 2.3984 3.6016 6 6 10.801 6 2.3984 0 3.6016 0 6-1.1992l44.398-22.801c6-3.6016 8.3984-10.801 4.8008-15.602-3.6016-4.8008-12-8.3984-18-4.8008z"/>
 </g>
</svg>
