<?xml version="1.0" encoding="UTF-8"?>
<svg width="1200pt" height="1200pt" version="1.1" viewBox="0 0 1200 1200" xmlns="http://www.w3.org/2000/svg">
 <g>
  <path d="m946.37 386.73c0.09375-14.117-5.4531-27.688-15.406-37.703-9.9492-10.016-23.484-15.645-37.602-15.645s-27.652 5.6289-37.605 15.645c-9.9492 10.016-15.496 23.586-15.406 37.703-0.089844 14.117 5.457 27.691 15.406 37.703 9.9531 10.016 23.488 15.648 37.605 15.648s27.652-5.6328 37.602-15.648c9.9531-10.012 15.5-23.586 15.406-37.703z"/>
  <path d="m583.03 570.07-50.793-33.051-11.406 70.145-154.34 34.566v0.003906c-9.5547 2.2656-17.199 9.418-20.09 18.801-2.8945 9.3867-0.60547 19.602 6.0117 26.855 6.6211 7.2539 16.582 10.465 26.191 8.4375l172.63-38.656 0.003906 0.003906c5.4023-1.2109 10.316-4.0117 14.113-8.0391 3.7969-4.0273 6.3008-9.0977 7.1875-14.562z"/>
  <path d="m523.39 440.54h128.93c2.0859 0 3.8516 1.5469 4.1211 3.6172 0.27344 2.0703-1.0352 4.0195-3.0508 4.5586l-89 23.652h-0.003906c-8.6836 2.3086-16.133 7.8984-20.773 15.594-4.6406 7.6953-6.1094 16.891-4.0977 25.648 2.0078 8.7578 7.3438 16.391 14.875 21.293l169.48 110.28-26.133 125.51c-1.9609 9.668 1.3711 19.652 8.7422 26.215 7.3711 6.5586 17.676 8.7031 27.051 5.6328 9.3789-3.0703 16.418-10.895 18.48-20.543l31.895-153.16c2.8984-13.918-1.5117-28.348-11.695-38.266l-76.34-74.348c-1.0664-1.0391-1.4922-2.5664-1.125-4.0039 0.36719-1.4414 1.4766-2.5742 2.9102-2.9766l106.43-30.191c13.848-3.9297 24.926-14.336 29.719-27.906 4.7891-13.574 2.6953-28.629-5.6211-40.379-8.3125-11.75-21.812-18.734-36.207-18.734h-268.56c-8.6133 0.078125-16.539 4.7188-20.82 12.191-4.2852 7.4688-4.2852 16.652 0 24.125 4.2812 7.4727 12.207 12.113 20.82 12.191z"/>
  <path d="m677.45 842.77c0.070312-6.3047-2.3828-12.371-6.8164-16.852-4.4297-4.4844-10.473-7.0039-16.773-7.0039s-12.344 2.5195-16.773 7.0039c-4.4297 4.4805-6.8867 10.547-6.8125 16.852-0.074219 6.3008 2.3828 12.371 6.8125 16.852 4.4297 4.4805 10.473 7.0039 16.773 7.0039s12.344-2.5234 16.773-7.0039c4.4336-4.4805 6.8867-10.551 6.8164-16.852z"/>
  <path d="m741.9 842.77c0.0625-6.3008-2.3906-12.363-6.8242-16.84-4.4297-4.4766-10.465-6.9961-16.766-6.9961-6.2969 0-12.336 2.5195-16.766 6.9961-4.4297 4.4766-6.8867 10.539-6.8203 16.84-0.066406 6.2969 2.3906 12.359 6.8203 16.836 4.4297 4.4766 10.469 6.9961 16.766 6.9961 6.3008 0 12.336-2.5195 16.766-6.9961 4.4336-4.4766 6.8867-10.539 6.8242-16.836z"/>
  <path d="m806.35 842.77c0-8.4297-4.4961-16.219-11.793-20.43-7.3008-4.2148-16.293-4.2148-23.59 0-7.3008 4.2109-11.797 12-11.797 20.43 0 8.4258 4.4961 16.215 11.797 20.43 7.2969 4.2148 16.289 4.2148 23.59 0 7.2969-4.2148 11.793-12.004 11.793-20.43z"/>
  <path d="m300.81 634.5c0.074218-6.3047-2.3828-12.371-6.8125-16.852-4.4297-4.4844-10.473-7.0039-16.773-7.0039-6.3008 0-12.344 2.5195-16.773 7.0039-4.4336 4.4805-6.8867 10.547-6.8164 16.852-0.070312 6.3008 2.3828 12.371 6.8164 16.852 4.4297 4.4805 10.473 7.0039 16.773 7.0039 6.3008 0 12.344-2.5234 16.773-7.0039 4.4297-4.4805 6.8867-10.551 6.8125-16.852z"/>
  <path d="m331.5 691.18c0.0625-6.2969-2.3906-12.363-6.8242-16.84-4.4297-4.4766-10.465-6.9961-16.766-6.9961-6.2969 0-12.336 2.5195-16.766 6.9961-4.4297 4.4766-6.8867 10.543-6.8203 16.84-0.066406 6.2969 2.3906 12.359 6.8203 16.836 4.4297 4.4805 10.469 6.9961 16.766 6.9961 6.3008 0 12.336-2.5156 16.766-6.9961 4.4336-4.4766 6.8867-10.539 6.8242-16.836z"/>
  <path d="m362.2 747.85c0-8.4297-4.4961-16.215-11.797-20.43-7.3008-4.2148-16.293-4.2148-23.59 0-7.3008 4.2148-11.797 12-11.797 20.43 0 8.4297 4.4961 16.215 11.797 20.43 7.2969 4.2148 16.289 4.2148 23.59 0s11.797-12 11.797-20.43z"/>
 </g>
</svg>
