<?xml version="1.0" encoding="UTF-8"?>
<svg width="1200pt" height="1200pt" version="1.1" viewBox="0 0 1200 1200" xmlns="http://www.w3.org/2000/svg">
 <g>
  <path d="m224.4 219c-0.83984 0.12109-1.5586 0.23828-2.2812 0.48047-0.23828 0.12109-0.35938 0.23828-0.60156 0.23828-0.96094 0.35938-1.6797 0.96094-2.3984 1.5586-0.12109 0.12109-0.23828 0.23828-0.35938 0.48047-0.60156 0.60156-1.0781 1.3203-1.4414 2.1602-0.23828 0.48047-0.35938 0.96094-0.48047 1.3203-0.12109 0.48047-0.35938 0.83984-0.48047 1.1992l-59.641 401.16c-4.8008 32.879 12.238 64.922 41.52 80.16l8.5195 44.641c3.9609 21 18.48 37.922 37.801 45.48l20.039 43.559c-32.52 24.121-53.762 62.641-53.762 106.2 0 72.84 59.281 132.12 132.24 132.12 72.84 0 132.12-59.281 132.12-132.12 0-43.559-21.238-82.078-53.879-106.2l17.879-38.762 267.61 0.003907 17.879 38.762c-32.641 24.121-53.879 62.641-53.879 106.2 0 73.078 59.277 132.36 132.24 132.36 55.559 0 103.08-34.559 122.64-83.16l78.602-43.68c17.16-9.4805 29.398-26.039 33.602-45.238 4.1992-19.32-0.12109-39.602-11.879-55.559l-40.199-53.879c13.078-5.2812 24-14.879 31.32-27.719 12.238-22.32 20.16-42.48 24.121-61.559 4.8008-24.359 3.3594-45.238-4.4414-63.961-15.121-36.961-49.68-52.922-100.8-73.078h-0.23828l-0.12109-0.12109c-13.801-5.5195-28.801-11.641-45.121-18.359-41.879-17.762-79.922-36.719-113.16-55.078-0.48047-0.23828-0.83984-0.48047-1.3203-0.71875-21-11.641-39.719-22.801-56.52-33.359h-0.12109c-29.52-18.602-52.199-34.801-65.762-45.719-74.762-60.48-123.72-158.4-145.44-291-0.48047-3-2.3984-5.5195-5.0391-6.8398-2.6406-1.3203-5.8789-1.1992-8.5195 0.23828-10.922 6.2383-65.52 38.641-65.52 68.879 0 6.6016 0.35938 16.559 1.4414 28.801l-205.08-0.011719c-0.35938-0.11719-0.71875 0.12109-1.082 0.12109zm-6 118.92h241.68c16.801 41.641 42.602 87.238 82.801 129.96 8.5195 9 17.281 17.52 26.398 25.801l-129.36 81.961c-4.3203 2.7617-5.5195 8.3984-2.7617 12.602l69.602 109.92-195.72-0.007813c-4.3203-69.238-57.359-126.24-126-135.6zm371.52 284.64 47.879 75.719-43.801 0.003906-59.879-94.922 97.68-61.922c11.52 7.4414 23.52 14.52 35.879 21.121l-74.762 47.398c-4.4375 2.6445-5.6367 8.2812-2.9961 12.602zm-73.441-29.758c-4.3203 2.7617-5.5195 8.3984-2.8789 12.602l58.559 92.762h-43.801l-70.922-111.96 126.48-80.16c10.078 8.3984 20.52 16.441 31.199 24.121zm-341.64 37.68 7.3203-49.32c59.641 8.0391 105.6 57 110.04 117h-58.922c-8.0391 0-16.199-1.5586-23.16-4.6797-24.598-10.68-39.117-36.602-35.277-63zm281.76 317.4c0 62.762-51.121 113.88-113.76 113.88-62.762 0-113.88-51.121-113.88-113.88 0-62.762 51.121-113.76 113.88-113.76 62.641-0.11719 113.76 51.004 113.76 113.76zm-189.84-145.08h0.48047 151.56l-13.199 28.68c-18.719-10.078-40.078-15.84-62.762-15.84-22.68 0-44.16 5.7617-62.879 15.961zm536.28 258.84c-62.762 0-113.76-51.121-113.76-113.88 0-62.762 51.121-113.76 113.76-113.76 62.641 0 113.76 51 113.76 113.76 0 62.879-51.121 113.88-113.76 113.88zm-75.961-258.72h151.92l-13.078 28.68c-18.719-10.199-40.078-15.961-62.762-15.961-22.68 0-44.039 5.7617-62.762 15.84zm284.16 60.359c8.6406 11.641 11.762 26.52 8.6406 40.68-3.1211 14.039-12 26.16-24.602 33.121l-62.52 34.68c1.4414-7.8008 2.2812-15.84 2.2812-24 0-20.398-4.8008-39.602-13.078-56.879l78-42.602zm-22.199-29.762-75.961 41.52c-8.5195-12.961-19.32-24.121-31.801-33.359l17.762-38.762h63.84c1.0781 0 2.1602-0.12109 3.2383-0.23828zm12.121-71.758c-6.9609 12.121-18.602 20.281-31.922 22.32-2.0391 0.23828-4.0781 0.35938-6.3594 0.35938h-695.64c-4.9219 0-9.2383-0.60156-13.199-2.0391-15.121-4.6797-26.398-17.52-29.398-33.359l-6.4805-34.199c4.9219 0.96094 10.078 1.5586 15.121 1.5586h787.2c-4.082 14.156-10.441 29.039-19.32 45.359zm-67.922-171c45.719 18.238 74.762 32.039 86.762 61.441 5.5195 13.441 6.8398 28.68 4.4414 46.078h-364.8l-49.199-77.762 75.961-48.121c33.121 16.078 68.641 29.039 106.56 39 14.641 3.8398 29.641 5.7617 44.641 5.7617 27.359 0 54.602-6.2383 79.801-18.602zm-440.64-446.76c8.0391 44.52 19.441 84.719 33.602 121.44l-42.121 7.5586c-5.0391 0.96094-8.2812 5.6406-7.4414 10.68 0.83984 4.4414 4.6797 7.5586 9 7.5586 0.48047 0 1.0781 0 1.6797-0.12109l45.84-8.2812c7.9219 18.48 16.801 35.641 26.398 51.961l-37.199 8.3984c-4.9219 1.0781-8.0391 6-6.9609 10.922 0.96094 4.3203 4.8008 7.1992 9 7.1992 0.60156 0 1.3203-0.12109 2.0391-0.23828l43.078-9.6016c8.2812 12.602 17.16 24.359 26.52 35.52l-29.879 7.4414c-4.9219 1.1992-7.9219 6.2383-6.7188 11.16 1.0781 4.1992 4.8008 6.9609 8.8789 6.9609 0.71875 0 1.4414-0.12109 2.2812-0.23828l39.121-9.7188c9.8398 10.441 20.039 20.16 30.84 29.16l-35.52 9.1211c-4.9219 1.1992-7.9219 6.2383-6.6016 11.16 1.0781 4.1992 4.8008 6.9609 8.8789 6.9609 0.71875 0 1.5586-0.12109 2.2812-0.23828l49.32-12.602c9.6016 6.9609 21.48 15.238 34.801 24l-37.32 11.398c-4.8008 1.4414-7.5586 6.6016-6.1211 11.398 1.1992 3.9609 4.8008 6.4805 8.7617 6.4805 0.83984 0 1.8008-0.12109 2.6406-0.35938l52.32-15.961c11.398 7.0781 23.641 14.398 36.84 21.961l-33.961 12.238c-4.8008 1.6797-7.1992 6.9609-5.5195 11.762 1.3203 3.7188 4.9219 6 8.6406 6 1.0781 0 2.0391-0.12109 3.1211-0.60156l48.84-17.641c14.16 7.8008 29.281 15.602 45 23.398l-26.039 9c-4.8008 1.6797-7.3203 6.8398-5.6406 11.641 1.3203 3.8398 4.9219 6.1211 8.6406 6.1211 0.96094 0 2.0391-0.12109 3-0.48047l43.32-15c14.039 6.6016 28.441 13.078 43.441 19.441 9.3594 3.8398 18.238 7.4414 26.762 10.922l-1.0781 0.48047c-35.039 17.16-74.641 21.238-111.72 11.641-59.762-15.602-113.52-39.238-160.56-70.559-0.12109-0.12109-0.12109-0.12109-0.23828-0.12109-29.52-19.559-56.398-42.121-80.52-67.68-78.613-83.766-100.33-179.29-106.33-228.72-1.9219-16.199-2.3984-28.922-2.3984-36.84 0.11719-12.242 23.637-32.16 45-46.082zm-59.641 93.121c3.1211 21.84 9 50.52 20.16 82.441l-231.96-0.003906 12.238-82.441z"/>
  <path d="m280.44 947.88c0 34.32 27.961 62.281 62.281 62.281 34.32 0 62.281-27.961 62.281-62.281 0-34.32-27.961-62.281-62.281-62.281-34.324 0.003906-62.281 27.844-62.281 62.281zm106.32 0c0 24.238-19.68 43.922-43.922 43.922-24.238 0-43.922-19.68-43.922-43.922 0-24.238 19.68-43.922 43.922-43.922 24.121-0.11719 43.922 19.684 43.922 43.922z"/>
  <path d="m803.04 885.6c-34.32 0-62.281 27.961-62.281 62.281 0 34.32 27.961 62.281 62.281 62.281 34.32 0 62.281-27.961 62.281-62.281 0-34.324-27.961-62.281-62.281-62.281zm0 106.2c-24.238 0-43.922-19.68-43.922-43.922 0-24.238 19.68-43.922 43.922-43.922 24.238 0 43.922 19.68 43.922 43.922 0 24.242-19.801 43.922-43.922 43.922z"/>
 </g>
</svg>
