<?xml version="1.0" standalone="no"?>
<!DOCTYPE svg PUBLIC "-//W3C//DTD SVG 20010904//EN"
 "http://www.w3.org/TR/2001/REC-SVG-20010904/DTD/svg10.dtd">
<svg version="1.0" xmlns="http://www.w3.org/2000/svg"
 width="578.000000pt" height="350.000000pt" viewBox="0 0 578.000000 350.000000"
 preserveAspectRatio="xMidYMid meet">

<g transform="translate(0.000000,350.000000) scale(0.100000,-0.100000)"
fill="#000000" stroke="none">
<path d="M2504 3291 c-47 -34 -79 -69 -71 -77 3 -3 54 -26 114 -50 59 -25 114
-47 121 -50 21 -10 13 20 -24 94 -31 63 -72 112 -94 112 -4 0 -25 -13 -46 -29z"/>
<path d="M1878 3189 c-87 -13 -173 -37 -284 -80 -119 -46 -182 -84 -218 -132
-49 -64 -199 -418 -184 -433 3 -2 25 3 49 12 70 25 194 29 285 9 85 -18 154
-53 235 -117 l50 -40 54 37 c54 38 80 44 125 32 22 -5 52 12 195 117 l170 123
6 47 c4 42 11 54 55 92 51 46 197 148 227 160 29 11 20 22 -40 53 -88 44 -263
99 -366 116 -98 16 -266 18 -359 4z"/>
<path d="M2678 2958 c-87 -47 -211 -140 -241 -180 l-20 -26 41 -69 c23 -37 56
-94 74 -125 18 -32 41 -60 50 -63 9 -4 54 12 100 33 98 47 185 75 300 97 95
18 117 33 101 67 -14 30 -165 200 -232 261 -29 26 -63 47 -75 47 -11 0 -56
-19 -98 -42z"/>
<path d="M2329 2616 c-32 -22 -102 -74 -157 -114 -56 -39 -104 -76 -107 -82
-6 -10 81 -129 100 -137 10 -3 263 169 315 214 7 6 -46 103 -73 134 l-22 27
-56 -42z"/>
<path d="M3012 2565 c-105 -19 -204 -51 -314 -102 -93 -42 -99 -43 -137 -32
-46 14 -20 28 -248 -136 -96 -69 -112 -85 -118 -114 -4 -23 -22 -48 -53 -77
l-46 -42 94 -102 c51 -55 101 -105 111 -110 10 -6 66 -10 126 -10 341 0 787
-57 1106 -141 327 -86 357 -92 457 -86 123 6 209 34 305 98 100 67 130 112
130 194 0 52 -4 67 -28 99 -38 49 -67 61 -219 91 -166 33 -364 87 -479 130
-50 19 -94 35 -98 35 -5 0 -16 -20 -25 -44 -22 -59 -51 -76 -123 -76 -96 1
-144 15 -175 49 -37 41 -35 67 8 154 l37 72 -28 20 c-16 11 -62 48 -104 83
-42 34 -83 62 -91 61 -8 0 -48 -7 -88 -14z"/>
<path d="M1247 2487 c-37 -13 -73 -29 -79 -35 -16 -16 -22 -218 -9 -283 46
-222 248 -379 486 -379 38 0 126 7 195 15 69 9 178 18 243 22 64 3 117 9 117
12 0 4 -36 45 -81 93 l-80 87 -34 -15 c-19 -8 -47 -11 -63 -8 -22 4 -42 -1
-74 -20 -53 -31 -82 -33 -125 -7 -32 20 -86 90 -103 137 -15 38 3 86 46 123
22 20 34 39 34 57 0 14 8 39 17 55 20 33 20 32 -72 93 -84 55 -130 68 -245 73
-91 3 -114 1 -173 -20z"/>
<path d="M1866 2363 c-55 -40 -76 -62 -76 -78 0 -26 153 -225 173 -225 16 0
146 98 160 122 12 18 7 27 -96 162 -31 42 -63 76 -71 76 -8 0 -48 -25 -90 -57z"/>
<path d="M3392 2407 c-18 -22 -72 -141 -72 -160 0 -23 32 -34 110 -39 l64 -3
20 40 c10 22 19 56 20 75 1 31 -4 37 -54 67 -60 36 -72 39 -88 20z"/>
<path d="M1717 2172 c-24 -27 -21 -40 19 -99 41 -59 76 -70 109 -33 17 19 16
21 -31 85 -51 68 -70 77 -97 47z"/>
<path d="M1810 1735 c-58 -8 -136 -14 -173 -14 -57 -1 -71 -5 -90 -24 -61 -63
-580 -619 -620 -665 -54 -61 -60 -96 -24 -138 33 -38 63 -35 187 18 332 142
639 212 930 212 217 0 378 -33 525 -107 71 -35 165 -98 185 -123 37 -44 93
-74 140 -74 39 0 60 9 131 54 407 258 976 280 1623 61 71 -24 136 -41 145 -38
33 12 61 47 61 76 0 76 -405 446 -615 562 l-60 33 -80 -15 c-95 -17 -199 -11
-309 17 l-77 21 -92 -35 c-215 -80 -497 -104 -827 -71 -293 29 -596 124 -735
230 -51 40 -59 40 -225 20z"/>
<path d="M865 1654 c-115 -18 -251 -81 -350 -163 -189 -155 -289 -432 -241
-661 32 -150 82 -249 179 -356 61 -66 162 -140 238 -172 123 -53 309 -69 445
-37 310 72 543 364 544 683 0 80 -3 83 -80 63 -19 -6 -54 -15 -77 -21 -43 -11
-43 -11 -43 -58 -1 -171 -119 -351 -284 -432 -205 -100 -422 -65 -582 96 -280
280 -148 751 239 850 80 21 211 14 284 -14 l52 -20 72 76 72 75 -36 18 c-89
46 -190 71 -297 74 -58 2 -118 1 -135 -1z"/>
<path d="M2708 1643 c-75 -15 -138 -39 -138 -52 0 -12 30 -18 185 -36 140 -16
460 -20 469 -6 9 14 -143 78 -228 95 -91 19 -193 19 -288 -1z"/>
<path d="M4565 1643 c-79 -17 -243 -89 -229 -101 5 -5 44 -34 87 -67 l77 -58
73 22 c175 52 362 5 493 -124 114 -112 162 -239 151 -399 -7 -102 -34 -181
-91 -259 -99 -139 -241 -210 -416 -209 -148 0 -253 45 -360 152 -76 76 -117
160 -137 281 -9 52 -17 95 -18 97 -6 6 -175 29 -180 24 -3 -3 -5 -40 -5 -81 0
-237 161 -488 384 -599 198 -99 453 -98 644 3 185 97 299 239 358 444 24 83
26 104 22 209 -4 97 -11 132 -36 206 -118 336 -469 534 -817 459z"/>
<path d="M2151 952 c-3 -208 97 -421 257 -547 134 -105 278 -155 447 -156 307
0 551 170 666 465 26 66 33 100 37 184 4 91 3 102 -12 102 -15 0 -169 -30
-173 -33 0 -1 -8 -42 -16 -91 -20 -116 -63 -202 -137 -276 -109 -109 -212
-152 -365 -152 -84 -1 -111 4 -167 25 -116 45 -196 107 -258 201 -53 82 -70
137 -78 256 l-7 94 -60 13 c-33 7 -76 12 -96 13 l-37 0 -1 -98z"/>
</g>
</svg>
