<?xml version="1.0" encoding="UTF-8"?>
<svg width="1200pt" height="1200pt" version="1.1" viewBox="0 0 1200 1200" xmlns="http://www.w3.org/2000/svg">
 <g>
  <path d="m1171.6 127.77c-15.855-0.15625-28.84 12.566-28.988 28.43-0.85938 83.191-32.758 145.84-64.887 188.59-11.59 15.395-23.156 28.031-33.168 37.891-7.5-2.1016-14.93-3.957-22.266-5.5391-13.195 7.9062-28.609 12.469-45.078 12.469-21.555 0-41.312-7.8086-56.621-20.723-28.84 1.3828-53.887 5.6094-73.73 10.266-18.906-4.4453-40.695-8-64.68-9.2109-15.129 12.289-34.391 19.668-55.352 19.668-21.629 0-41.449-7.8672-56.781-20.871-26.77 1.082-50.375 4.6523-69.715 8.8203-19.48-4.1953-43.277-7.793-70.281-8.8477-15.336 13.023-35.172 20.898-56.816 20.898-16.094 0-31.18-4.3672-44.172-11.949-13.383 2.9766-27.051 6.7852-40.926 11.539-19.742-6.8594-58.473-17.91-108.66-20.32-15.312 12.922-35.07 20.727-56.621 20.727-16.473 0-31.891-4.5586-45.086-12.477-7.3398 1.582-14.77 3.4414-22.27 5.5391-10.445-10.281-22.594-23.594-34.656-39.887-31.621-42.719-62.543-104.69-63.387-186.59-0.15625-15.867-13.141-28.582-29-28.434-15.859 0.16406-28.582 13.145-28.426 29 0.94531 98.066 39.027 173.03 76.441 222.59 7.5312 9.9766 15.027 18.953 22.223 26.961-7.1875 8.043-9.5469 19.797-5.0508 30.379 4.6484 10.922 15.27 17.48 26.441 17.48 1.8828 0 3.793-0.19141 5.6836-0.57422v574.25c0 24.516 19.875 44.375 44.375 44.375 24.508 0 44.379-19.859 44.379-44.375v-324h16.637v324c0 24.516 19.875 44.375 44.375 44.375 24.508 0 44.379-19.859 44.379-44.375l0.003907-596.88c10.242 1.7695 19.418 3.8242 27.316 5.8711 0.035156 0.007812 0.066406 0.019531 0.097656 0.023438 4.6875 10.816 15.238 17.312 26.344 17.312 0.12109 0 0.24219-0.019532 0.37109-0.019532 0.082031 0 0.16406 0.019532 0.24609 0.019532 0.61719 0 1.2383-0.054688 1.8594-0.089844v573.77c0 24.516 19.875 44.375 44.375 44.375 24.508 0 44.379-19.859 44.379-44.375v-324h16.637v324c0 24.516 19.875 44.375 44.375 44.375 24.508 0 44.379-19.859 44.379-44.375v-581.9c4.8633-1.8867 15.207-5.5938 29.742-9.3086 0.25781 0.066407 0.53906 0.13281 0.79688 0.19922 5.4609 1.4102 10.289 2.8125 14.461 4.1133 3.4258 5.6602 8.5859 9.7617 14.449 11.965v574.93c0 24.516 19.875 44.375 44.375 44.375 24.508 0 44.379-19.859 44.379-44.375v-324h16.637v324c0 24.516 19.875 44.375 44.375 44.375 24.508 0 44.379-19.859 44.379-44.375l0.003906-573.8c0.82031 0.074218 1.6406 0.12109 2.4609 0.12109 10.082 0 19.664-5.375 24.867-14.438 2.7812 0.82812 5.4766 1.6719 8.0352 2.5117 8.2617 2.7148 15.273 5.4102 20.863 7.7422v577.86c0 24.516 19.875 44.375 44.379 44.375 24.5 0 44.375-19.859 44.375-44.375v-324h16.637v324c0 24.516 19.875 44.375 44.379 44.375 24.5 0 44.375-19.859 44.375-44.375l0.003906-574.25c1.8906 0.38281 3.8008 0.57422 5.6836 0.57422 11.172 0 21.793-6.5586 26.445-17.484 4.4961-10.582 2.1328-22.336-5.0586-30.371 7.1992-8.0078 14.703-16.984 22.227-26.969 37.414-49.551 75.508-124.52 76.441-222.58 0.17969-15.867-12.547-28.848-28.406-29.004zm-222.16 428.32c0-15.836 12.883-28.723 28.711-28.723 15.84 0 28.723 12.887 28.723 28.723 0 15.828-12.883 28.715-28.723 28.715-15.828 0-28.711-12.887-28.711-28.715zm99.785-147.66-48.797 119.55c-4.6719-3.7031-10.281-6.2539-16.422-7.2617l48.594-119.07h0.007812c1.8711-4.582 7.1016-6.793 11.695-4.9102 4.5898 1.8633 6.793 7.0977 4.9219 11.691zm-139.12-11.691c4.582-1.8789 9.8203 0.32031 11.699 4.9102l48.727 119.38c-6.0781 1.3125-11.566 4.1797-16.07 8.1445l-49.281-120.74c-1.8672-4.5898 0.33203-9.832 4.9258-11.695zm-189.95 124.29c-6.0742 1.3125-11.566 4.1797-16.062 8.1445l-49.281-120.74c-1.8711-4.582 0.33203-9.8242 4.9219-11.695 4.582-1.8789 9.8203 0.32031 11.695 4.9102zm-21.102 35.062c0-15.836 12.887-28.723 28.723-28.723 15.828 0 28.715 12.887 28.715 28.723 0 15.828-12.887 28.715-28.715 28.715-15.84 0-28.723-12.887-28.723-28.715zm50.992-28.109c-4.6719-3.707-10.281-6.2539-16.422-7.2617l48.602-119.07c1.8711-4.582 7.1055-6.793 11.699-4.9102 4.582 1.8711 6.793 7.1016 4.9219 11.695zm-209.72-131.24c4.582 1.8711 6.793 7.1016 4.9219 11.695l-48.801 119.55c-4.6719-3.707-10.281-6.2539-16.422-7.2617l48.602-119.07c1.8672-4.5898 7.1055-6.8008 11.699-4.9141zm-139.12 11.691c-1.8711-4.582 0.33203-9.8242 4.9219-11.695 4.5781-1.8789 9.8203 0.32031 11.695 4.9102l48.73 119.38c-6.0742 1.3125-11.566 4.1797-16.066 8.1445zm44.246 147.66c0-15.836 12.887-28.723 28.715-28.723 15.836 0 28.723 12.887 28.723 28.723 0 15.828-12.887 28.715-28.723 28.715-15.828 0-28.715-12.887-28.715-28.715zm-193.89 0c0 15.828-12.887 28.715-28.723 28.715-15.828 0-28.715-12.887-28.715-28.715 0-15.836 12.887-28.723 28.715-28.723 15.844 0.003906 28.723 12.887 28.723 28.723zm-36.344-35.059c-6.0703 1.3125-11.555 4.1797-16.055 8.1406l-49.281-120.74c-1.8789-4.582 0.33203-9.8242 4.9102-11.695 4.5859-1.8789 9.832 0.32031 11.703 4.9102zm29.898 6.9453c-4.6719-3.7031-10.281-6.2539-16.426-7.2578l48.605-119.07c1.8711-4.582 7.1094-6.793 11.703-4.9102 4.5781 1.8711 6.7891 7.1016 4.9062 11.695z"/>
  <path d="m303.58 301.68c0 44.602-36.156 80.758-80.758 80.758-44.602 0-80.758-36.156-80.758-80.758 0-44.602 36.156-80.758 80.758-80.758 44.602 0 80.758 36.156 80.758 80.758"/>
  <path d="m1057.9 301.68c0 44.602-36.156 80.758-80.758 80.758-44.602 0-80.758-36.156-80.758-80.758 0-44.602 36.156-80.758 80.758-80.758 44.602 0 80.758 36.156 80.758 80.758"/>
  <path d="m553.96 301.68c0 44.602-36.156 80.758-80.758 80.758s-80.758-36.156-80.758-80.758c0-44.602 36.156-80.758 80.758-80.758s80.758 36.156 80.758 80.758"/>
  <path d="m807.56 301.68c0 44.602-36.156 80.758-80.758 80.758-44.602 0-80.758-36.156-80.758-80.758 0-44.602 36.156-80.758 80.758-80.758 44.602 0 80.758 36.156 80.758 80.758"/>
 </g>
</svg>
